<svg viewBox="0 0 144 36" xmlns="http://www.w3.org/2000/svg">
  <path fill="#2D2D2E" d="M55.6339 9.87867H59.6635V26.1204H55.6339L55.4525 24.1064C55.001 24.8322 54.4039 25.4194 53.6608 25.8682C52.9181 26.3179 52.0399 26.5427 51.027 26.5427C49.8051 26.5427 48.6594 26.3153 47.5919 25.8608C46.5239 25.406 45.5857 24.7783 44.7764 23.9767C43.9675 23.1754 43.3342 22.2496 42.8774 21.1993C42.4202 20.1493 42.1921 19.023 42.1921 17.8211C42.1921 16.6193 42.4092 15.5741 42.8439 14.5563C43.279 13.5385 43.8871 12.6452 44.6691 11.8761C45.4507 11.1074 46.3532 10.5067 47.377 10.0736C48.4008 9.64081 49.5014 9.4238 50.6797 9.4238C51.7698 9.4238 52.7468 9.66208 53.6114 10.1387C54.4754 10.6152 55.2102 11.2216 55.8161 11.9581L55.6343 9.8791L55.6339 9.87867ZM50.9278 22.7258C51.7865 22.7258 52.546 22.5148 53.2067 22.0925C53.8669 21.6702 54.3845 21.099 54.7592 20.3789C55.1334 19.6589 55.3205 18.8659 55.3205 17.9991C55.3205 17.1323 55.1334 16.3237 54.7592 15.6036C54.3845 14.8836 53.8642 14.3119 53.1987 13.8896C52.5323 13.4677 51.7755 13.2564 50.9282 13.2564C50.0809 13.2564 49.3068 13.4703 48.6078 13.8974C47.9088 14.3258 47.3532 14.8966 46.9401 15.6114C46.527 16.3254 46.321 17.1219 46.321 17.9987C46.321 18.8754 46.5297 19.6719 46.9481 20.3859C47.3664 21.1007 47.9255 21.6693 48.6241 22.0916C49.3232 22.514 50.091 22.7249 50.9278 22.7249V22.7258Z" />
  <path fill="#2D2D2E" d="M71.8171 13.8415H68.6132V26.1204H64.5836V13.8415H62.1397V9.87827H64.5836V4.77832H68.6132V9.87827H71.8171V13.8415Z" />
  <path fill="#2D2D2E" d="M81.6926 26.5427C80.1737 26.5427 78.7888 26.1581 77.5395 25.3894C76.2897 24.6208 75.2937 23.5869 74.5505 22.2874C73.8074 20.9883 73.4358 19.5534 73.4358 17.983C73.4358 16.8029 73.6507 15.6956 74.0801 14.6618C74.509 13.6274 75.1008 12.7181 75.855 11.933C76.6092 11.1482 77.487 10.5336 78.4892 10.0896C79.491 9.64557 80.5589 9.42335 81.6931 9.42335C82.9808 9.42335 84.1618 9.69158 85.235 10.2276C86.3087 10.7632 87.2196 11.4972 87.9685 12.4282C88.717 13.3596 89.262 14.4204 89.6031 15.6119C89.9442 16.8029 90.0215 18.0481 89.8343 19.3472H77.7628C77.9168 19.9535 78.1701 20.4978 78.5227 20.9796C78.8749 21.4614 79.3206 21.8455 79.8604 22.1324C80.3996 22.4198 81.0104 22.5682 81.6931 22.579C82.3974 22.5899 83.0391 22.4245 83.6167 22.0838C84.1944 21.7427 84.6763 21.28 85.0616 20.6949L89.1737 21.6372C88.5025 23.0773 87.5003 24.2553 86.168 25.1698C84.8361 26.0852 83.3445 26.5427 81.6931 26.5427H81.6926ZM77.63 16.3753H85.7549C85.6335 15.7256 85.378 15.1388 84.9875 14.6131C84.5965 14.0884 84.1146 13.6687 83.5426 13.3549C82.9698 13.0406 82.3533 12.8835 81.6931 12.8835C81.0329 12.8835 80.4213 13.038 79.8604 13.3466C79.2986 13.6552 78.8224 14.0723 78.4314 14.5975C78.0408 15.1227 77.7734 15.7156 77.6304 16.3758L77.63 16.3753Z" />
  <path fill="#2D2D2E" d="M102.814 21.2314L106.447 23.1641C105.687 24.1819 104.735 24.9997 103.591 25.6169C102.445 26.2341 101.196 26.5427 99.8418 26.5427C98.3229 26.5427 96.938 26.1581 95.6887 25.3894C94.4389 24.6208 93.4429 23.5895 92.6997 22.2956C91.9566 21.0018 91.585 19.5699 91.585 17.9995C91.585 16.8085 91.7999 15.6961 92.2293 14.6618C92.6582 13.6274 93.2505 12.7181 94.0047 11.933C94.7584 11.1482 95.6366 10.5336 96.6384 10.0896C97.6402 9.64557 98.7081 9.42335 99.8423 9.42335C101.197 9.42335 102.446 9.73195 103.591 10.3492C104.736 10.9664 105.688 11.7949 106.448 12.8345L102.814 14.7507C102.429 14.318 101.975 13.982 101.452 13.7438C100.929 13.5059 100.393 13.3861 99.8423 13.3861C99.0497 13.3861 98.3339 13.6005 97.6958 14.0276C97.0572 14.4556 96.5501 15.0181 96.1763 15.7165C95.8021 16.4153 95.615 17.1757 95.615 17.9986C95.615 18.8216 95.8021 19.5664 96.1763 20.2643C96.5506 20.9627 97.0572 21.5226 97.6958 21.9453C98.3339 22.3677 99.0501 22.579 99.8423 22.579C100.415 22.579 100.96 22.4571 101.477 22.2132C101.995 21.9697 102.44 21.642 102.814 21.2305L102.814 21.2314Z" />
  <path fill="#2D2D2E" d="M124.546 15.8554V26.1204H120.517V16.8949C120.517 16.256 120.357 15.6739 120.038 15.1488C119.718 14.6236 119.292 14.2065 118.758 13.8979C118.224 13.5893 117.632 13.4352 116.983 13.4352C116.333 13.4352 115.741 13.5893 115.208 13.8979C114.673 14.2065 114.25 14.6236 113.936 15.1488C113.622 15.6739 113.465 16.256 113.465 16.8949V26.1204H109.436L109.419 9.87867H113.449L113.465 11.3244C114.027 10.7398 114.698 10.2767 115.48 9.93553C116.262 9.59481 117.104 9.4238 118.007 9.4238C119.206 9.4238 120.302 9.71373 121.293 10.2932C122.284 10.8722 123.074 11.6469 123.663 12.6157C124.252 13.5849 124.547 14.6648 124.547 15.8558L124.546 15.8554Z" />
  <path fill="#2D2D2E" d="M139.97 9.87867H144V26.1204H139.97L139.789 24.1064C139.338 24.8322 138.74 25.4194 137.997 25.8682C137.254 26.3179 136.376 26.5427 135.363 26.5427C134.141 26.5427 132.996 26.3153 131.928 25.8608C130.86 25.406 129.922 24.7783 129.113 23.9767C128.304 23.1754 127.671 22.2496 127.214 21.1993C126.757 20.1493 126.528 19.023 126.528 17.8211C126.528 16.6193 126.746 15.5741 127.18 14.5563C127.615 13.5385 128.223 12.6452 129.005 11.8761C129.787 11.1074 130.69 10.5067 131.714 10.0736C132.737 9.64081 133.838 9.4238 135.016 9.4238C136.106 9.4238 137.083 9.66208 137.948 10.1387C138.812 10.6152 139.547 11.2216 140.152 11.9581L139.971 9.8791L139.97 9.87867ZM135.264 22.7258C136.123 22.7258 136.883 22.5148 137.543 22.0925C138.203 21.6702 138.721 21.099 139.095 20.3789C139.47 19.6589 139.657 18.8659 139.657 17.9991C139.657 17.1323 139.47 16.3237 139.095 15.6036C138.721 14.8836 138.201 14.3119 137.535 13.8896C136.869 13.4677 136.112 13.2564 135.265 13.2564C134.417 13.2564 133.643 13.4703 132.944 13.8974C132.245 14.3258 131.689 14.8966 131.276 15.6114C130.863 16.3254 130.657 17.1219 130.657 17.9987C130.657 18.8754 130.866 19.6719 131.285 20.3859C131.703 21.1007 132.261 21.6693 132.961 22.0916C133.66 22.514 134.427 22.7249 135.264 22.7249V22.7258Z" />
  <path fill="#F36858" d="M36.6034 18C36.5906 25.0727 35.9053 30.0003 33.1687 32.6288C30.5028 35.3138 25.4926 35.9874 18.3015 36C11.1104 35.9874 6.1002 35.3134 3.42764 32.6219C0.697704 29.9999 0.0127979 25.0722 0 17.9996C0.0127979 10.9269 0.698141 5.99928 3.43425 3.37074C6.10063 0.686215 11.1108 0.0125871 18.3019 0C25.493 0.0125871 30.5032 0.686649 33.1758 3.37769C35.9057 5.99971 36.5906 10.9273 36.6034 18Z" />
  <path fill="#FFF" d="M13.2163 26.3194C11.8381 26.3194 10.5447 25.934 9.42638 25.1705C7.59186 23.9183 6.45197 21.7351 6.45197 19.4738C6.45197 17.4012 7.13202 15.4416 8.4736 13.649C9.76354 11.925 11.3505 10.7817 12.4546 10.1263C13.858 9.2934 15.7252 8.73349 17.5769 8.58939C19.6528 8.42793 21.5482 8.80337 22.9132 9.64627C23.5487 10.0386 23.7402 10.8629 23.3417 11.4879C22.9427 12.1129 22.1047 12.3013 21.4692 11.9093C19.5164 10.704 15.8907 11.2079 13.858 12.4141C12.7578 13.0674 9.16822 15.5067 9.16822 19.4738C9.16822 20.8731 9.86062 22.2152 10.9749 22.976C12.1228 23.7595 13.5795 23.8615 15.1881 23.2707C15.6581 23.098 16.1537 22.8684 16.6426 22.591C16.5067 22.223 16.4048 21.8293 16.3381 21.4126C16.1321 20.1222 16.3015 18.9234 16.4798 18.1452C17.1983 15.0084 19.1524 13.8326 20.7711 14.0591C21.591 14.1737 22.2455 14.5752 22.6634 15.2211C23.309 16.218 23.3126 17.6417 22.674 19.7016C22.3095 20.8783 21.5584 22.0311 20.4878 23.0646C21.3951 23.5559 22.5504 23.7512 23.7283 23.5919C25.3523 23.3727 26.821 22.4951 27.6581 21.2442C28.0703 20.6279 28.9128 20.4569 29.5394 20.8627C30.1661 21.2681 30.34 22.0967 29.9273 22.713C28.6471 24.6271 26.5222 25.9123 24.0977 26.2391C21.8942 26.5369 19.7737 26.0056 18.2221 24.7777C17.5517 25.1757 16.8456 25.5143 16.1382 25.7743C15.1444 26.1393 14.1603 26.3203 13.2159 26.3203L13.2163 26.3194ZM20.3748 16.7029C20.1824 16.7029 19.4922 17.1495 19.1298 18.732C18.9842 19.3679 18.9242 20.0819 18.9917 20.7407C19.4886 20.1834 19.8748 19.5697 20.0756 18.9221C20.5337 17.4433 20.4388 16.8639 20.3902 16.7042C20.3898 16.7042 20.3894 16.7042 20.3889 16.7042C20.3845 16.7037 20.3796 16.7033 20.3748 16.7033V16.7029Z" />
  <path fill="#F36858" d="M28.7971 22.8987C29.3165 22.8987 29.7375 22.4846 29.7375 21.9738C29.7375 21.4629 29.3165 21.0488 28.7971 21.0488C28.2777 21.0488 27.8567 21.4629 27.8567 21.9738C27.8567 22.4846 28.2777 22.8987 28.7971 22.8987Z" />
</svg>
